<?xml version="1.0" standalone="no"?>
<!DOCTYPE svg PUBLIC "-//W3C//DTD SVG 20010904//EN"
 "http://www.w3.org/TR/2001/REC-SVG-20010904/DTD/svg10.dtd">
<svg version="1.0" xmlns="http://www.w3.org/2000/svg"
 width="512.000000pt" height="512.000000pt" viewBox="0 0 512.000000 512.000000"
 preserveAspectRatio="xMidYMid meet">
<metadata>
Created by potrace 1.11, written by Peter Selinger 2001-2013
</metadata>
<g transform="translate(0.000000,512.000000) scale(0.100000,-0.100000)"
fill="#000000" stroke="none">
<path d="M430 5113 c-180 -30 -335 -161 -402 -339 -22 -58 -23 -65 -25 -674
l-3 -615 61 115 c305 577 773 974 1307 1107 94 24 127 27 267 27 173 0 244
-13 370 -69 311 -137 511 -472 518 -868 l2 -97 -400 -190 c-220 -104 -402
-190 -406 -190 -4 0 -10 37 -13 83 -4 45 -12 102 -18 127 -39 160 -149 242
-259 192 -180 -81 -418 -516 -549 -1005 l-29 -107 27 6 c15 4 37 11 50 15 47
18 247 49 351 55 312 19 595 -86 792 -293 211 -222 313 -535 279 -855 -43
-406 -232 -725 -558 -942 -226 -151 -448 -224 -741 -247 -394 -30 -720 75
-965 311 l-88 85 4 -170 c4 -140 9 -180 27 -229 54 -151 177 -270 331 -322 53
-18 134 -19 2200 -19 2066 0 2147 1 2200 19 154 52 274 169 332 322 23 59 23
64 26 704 l3 645 -52 -90 c-221 -386 -554 -729 -915 -945 -310 -184 -692 -300
-987 -300 l-85 0 4 38 c6 46 84 923 84 938 0 7 34 14 86 18 402 33 734 276
923 677 48 103 118 305 109 314 -3 3 -41 -12 -84 -34 -166 -82 -312 -116 -504
-115 -126 0 -158 4 -244 27 -184 51 -329 132 -466 263 -134 128 -244 305 -304
489 -78 238 -74 592 9 842 163 488 555 822 1093 930 122 24 403 24 525 0 290
-58 515 -175 710 -370 l99 -98 -4 218 c-4 192 -7 225 -26 277 -30 80 -72 144
-135 203 -63 59 -106 86 -183 116 l-59 22 -2130 1 c-1172 1 -2141 -1 -2155 -3z"/>
<path d="M3970 3884 c-141 -37 -278 -140 -330 -249 -29 -59 -39 -188 -21 -263
35 -142 188 -247 376 -259 177 -12 349 73 406 200 43 94 28 314 -29 427 -64
129 -232 189 -402 144z"/>
<path d="M945 1954 c-16 -2 -72 -14 -123 -25 -117 -26 -116 -26 -108 -204 10
-215 40 -314 119 -397 61 -63 107 -82 197 -82 202 2 406 128 495 307 66 135
58 241 -26 311 -83 70 -149 87 -354 91 -93 2 -183 1 -200 -1z"/>
</g>
</svg>
